<svg width="30" height="30" viewBox="0 0 30 30" fill="none" xmlns="http://www.w3.org/2000/svg">
<path d="M24.6336 2.86599C24.8679 3.10039 24.9996 3.41828 24.9996 3.74974C24.9996 4.08119 24.8679 4.39908 24.6336 4.63349L19.2673 9.99974H24.9223C25.227 9.99982 25.5211 10.1111 25.7494 10.3128C25.9777 10.5144 26.1246 10.7925 26.1623 11.0947C26.4664 13.5069 25.9808 15.9526 24.7784 18.0656C23.576 20.1786 21.7214 21.8453 19.4923 22.816L19.9623 24.6972C20.0083 24.8815 20.0117 25.0737 19.9722 25.2595C19.9328 25.4452 19.8515 25.6195 19.7347 25.7691C19.6178 25.9188 19.4684 26.0398 19.2977 26.1231C19.1271 26.2064 18.9397 26.2497 18.7498 26.2497H11.2498C11.06 26.2497 10.8726 26.2064 10.702 26.1231C10.5313 26.0398 10.3819 25.9188 10.265 25.7691C10.1482 25.6195 10.0669 25.4452 10.0275 25.2595C9.98802 25.0737 9.9914 24.8815 10.0373 24.6972L10.5073 22.816C8.27833 21.8453 6.42374 20.1786 5.22131 18.0656C4.01888 15.9526 3.53332 13.5069 3.83735 11.0947C3.87512 10.7925 4.02197 10.5144 4.2503 10.3128C4.47863 10.1111 4.77273 9.99982 5.07735 9.99974H9.48235L16.6161 2.86599C16.7314 2.7466 16.8693 2.65137 17.0218 2.58586C17.1743 2.52035 17.3384 2.48586 17.5043 2.48442C17.6703 2.48298 17.8349 2.51461 17.9885 2.57746C18.1422 2.64031 18.2817 2.73313 18.3991 2.85049C18.5165 2.96786 18.6093 3.10742 18.6721 3.26104C18.735 3.41466 18.7666 3.57926 18.7652 3.74524C18.7637 3.91121 18.7292 4.07524 18.6637 4.22774C18.5982 4.38025 18.503 4.51818 18.3836 4.63349L13.0173 9.99974H15.7323L22.8661 2.86599C23.1005 2.63165 23.4184 2.5 23.7498 2.5C24.0813 2.5 24.3992 2.63165 24.6336 2.86599Z" fill="black"/>
</svg>
