<svg width="34" height="34" viewBox="0 0 34 34" fill="none" xmlns="http://www.w3.org/2000/svg">
<path d="M24.375 0C26.8614 0 29.246 0.98772 31.0041 2.74587C32.7623 4.50403 33.75 6.8886 33.75 9.375V24.375C33.75 26.8614 32.7623 29.246 31.0041 31.0041C29.246 32.7623 26.8614 33.75 24.375 33.75H9.375C6.8886 33.75 4.50403 32.7623 2.74587 31.0041C0.98772 29.246 0 26.8614 0 24.375V9.375C0 6.8886 0.98772 4.50403 2.74587 2.74587C4.50403 0.98772 6.8886 0 9.375 0H24.375ZM16.875 9.375C14.8859 9.375 12.9782 10.1652 11.5717 11.5717C10.1652 12.9782 9.375 14.8859 9.375 16.875C9.375 18.8641 10.1652 20.7718 11.5717 22.1783C12.9782 23.5848 14.8859 24.375 16.875 24.375C18.8641 24.375 20.7718 23.5848 22.1783 22.1783C23.5848 20.7718 24.375 18.8641 24.375 16.875C24.375 14.8859 23.5848 12.9782 22.1783 11.5717C20.7718 10.1652 18.8641 9.375 16.875 9.375ZM16.875 13.125C17.8696 13.125 18.8234 13.5201 19.5266 14.2234C20.2299 14.9266 20.625 15.8804 20.625 16.875C20.625 17.8696 20.2299 18.8234 19.5266 19.5266C18.8234 20.2299 17.8696 20.625 16.875 20.625C15.8804 20.625 14.9266 20.2299 14.2234 19.5266C13.5201 18.8234 13.125 17.8696 13.125 16.875C13.125 15.8804 13.5201 14.9266 14.2234 14.2234C14.9266 13.5201 15.8804 13.125 16.875 13.125ZM25.3125 6.5625C24.8152 6.5625 24.3383 6.76004 23.9867 7.11168C23.635 7.46331 23.4375 7.94022 23.4375 8.4375C23.4375 8.93478 23.635 9.41169 23.9867 9.76332C24.3383 10.115 24.8152 10.3125 25.3125 10.3125C25.8098 10.3125 26.2867 10.115 26.6383 9.76332C26.99 9.41169 27.1875 8.93478 27.1875 8.4375C27.1875 7.94022 26.99 7.46331 26.6383 7.11168C26.2867 6.76004 25.8098 6.5625 25.3125 6.5625Z" fill="currentColor"/>
</svg>
