<svg width="28" height="30" viewBox="0 0 28 30" fill="none" xmlns="http://www.w3.org/2000/svg">
<g clip-path="url(#clip0_1002_759)">
<path d="M17.3476 22.4824C16.1926 25.3949 13.4101 27.4212 10.1501 27.4424H10.1438C8.54493 27.4425 6.98677 26.9383 5.69103 26.0015C4.39528 25.0648 3.42797 23.7433 2.92672 22.225C2.42548 20.7067 2.41584 19.069 2.89917 17.545C3.3825 16.0209 4.33419 14.6881 5.61881 13.7362L5.63881 13.7212L5.19506 10.9824C2.07131 12.7549 -0.00244056 16.0574 -0.00244056 19.8449C-0.00337045 22.1297 0.766221 24.348 2.18194 26.1414C3.59765 27.9347 5.57676 29.1982 7.79935 29.7276C10.0219 30.2571 12.3581 30.0215 14.4303 29.0591C16.5025 28.0966 18.1896 26.4635 19.2188 24.4237L19.2451 24.3662L17.3476 22.4824Z" fill="black"/>
<path d="M20.3101 18.8371C20.2189 18.749 20.1211 18.6679 20.0176 18.5946L20.0101 18.5896C19.7364 18.4021 19.3976 18.2896 19.0326 18.2896H11.1189L10.0951 11.9809H18.5426C18.7058 11.9809 18.8674 11.9488 19.0181 11.8863C19.1689 11.8239 19.3058 11.7324 19.4212 11.617C19.5366 11.5016 19.6281 11.3646 19.6906 11.2139C19.753 11.0631 19.7851 10.9016 19.7851 10.7384C19.7851 10.5752 19.753 10.4137 19.6906 10.2629C19.6281 10.1122 19.5366 9.9752 19.4212 9.85982C19.3058 9.74444 19.1689 9.65292 19.0181 9.59048C18.8674 9.52804 18.7058 9.4959 18.5426 9.4959H9.69014L9.55139 8.6559C9.51281 8.42748 9.42962 8.2089 9.30657 8.01263C9.18352 7.81636 9.02302 7.64625 8.83422 7.51201C8.64543 7.37777 8.43205 7.28203 8.20625 7.23026C7.98046 7.17849 7.74668 7.1717 7.51826 7.21027C7.28984 7.24885 7.07126 7.33204 6.87499 7.45509C6.67872 7.57814 6.50861 7.73864 6.37438 7.92744C6.10327 8.30872 5.99473 8.78209 6.07264 9.2434L6.07139 9.2334L7.87139 20.2646C7.95255 20.6892 8.17569 21.0736 8.50415 21.3545C8.83261 21.6355 9.24687 21.7965 9.67889 21.8109H18.3101L25.0714 28.5734C25.2334 28.7419 25.4273 28.8763 25.6419 28.969C25.8565 29.0616 26.0873 29.1104 26.321 29.1127C26.5547 29.115 26.7865 29.0707 27.0029 28.9823C27.2192 28.894 27.4158 28.7633 27.5811 28.5981C27.7463 28.4328 27.8769 28.2363 27.9653 28.0199C28.0537 27.8036 28.098 27.5717 28.0957 27.3381C28.0934 27.1044 28.0446 26.8735 27.9519 26.6589C27.8593 26.4443 27.7249 26.2504 27.5564 26.0884L20.3101 18.8371ZM10.4314 3.3634C10.4314 4.25569 10.0769 5.11143 9.44598 5.74237C8.81504 6.37331 7.9593 6.72777 7.06701 6.72777C6.17472 6.72777 5.31898 6.37331 4.68804 5.74237C4.0571 5.11143 3.70264 4.25569 3.70264 3.3634C3.70264 2.47111 4.0571 1.61537 4.68804 0.984426C5.31898 0.353483 6.17472 -0.000976562 7.06701 -0.000976562C7.9593 -0.000976562 8.81504 0.353483 9.44598 0.984426C10.0769 1.61537 10.4314 2.47111 10.4314 3.3634Z" fill="black"/>
</g>
<defs>
<clipPath id="clip0_1002_759">
<rect width="27.5" height="30" fill="white"/>
</clipPath>
</defs>
</svg>
