<svg width="30" height="30" viewBox="0 0 30 30" fill="none" xmlns="http://www.w3.org/2000/svg">
<path d="M4.33494 20.9313C4.95369 19.7338 6.25994 18.9312 7.83994 19.13C9.51062 19.334 11.1677 19.637 12.8024 20.0375C15.3149 20.665 17.5162 21.8713 19.1437 22.9725L19.6937 23.355L20.1937 23.7238L20.6412 24.0687L21.0337 24.3863L21.3674 24.6688L21.6424 24.9088C22.6962 25.8475 21.9799 27.3813 20.7862 27.4938L20.6462 27.5H9.90369C7.80119 27.5 6.05369 26.4438 4.77369 24.8425C3.80619 23.6338 3.72369 22.1138 4.33619 20.9313H4.33494ZM23.7499 2.5C24.8662 2.5 25.3474 3.55 25.5837 4.5125L25.6587 4.8475L25.6887 5.0075C25.8687 6.00375 25.9649 7.31 26.0037 8.6525C26.0787 11.3087 25.9262 14.405 25.5949 15.8963C25.0174 18.4988 24.1699 20.3075 23.1549 21.3975C22.1224 22.51 20.7274 23.0112 19.4412 22.3675C18.4549 21.875 17.8662 20.7037 17.5437 19.705C17.0726 18.2493 17.0801 16.6811 17.5649 15.23C17.8274 14.44 18.2999 13.8025 18.8199 13.1963L19.2737 12.6825C19.8262 12.0637 20.3799 11.445 20.7574 10.6913C21.3074 9.59125 21.4574 8.3875 21.5037 7.17875L21.5212 6.45375L21.5324 5.75375L21.5399 5.58125L21.5649 5.23125C21.6837 3.88375 22.1449 2.5 23.7499 2.5Z" fill="black"/>
</svg>
