<svg width="38" height="27" viewBox="0 0 38 27" fill="none" xmlns="http://www.w3.org/2000/svg">
<path d="M15 18.75L24.7312 13.125L15 7.5V18.75ZM36.675 4.06875C36.9187 4.95 37.0875 6.13125 37.2 7.63125C37.3313 9.13125 37.3875 10.425 37.3875 11.55L37.5 13.125C37.5 17.2313 37.2 20.25 36.675 22.1812C36.2062 23.8687 35.1187 24.9562 33.4312 25.425C32.55 25.6687 30.9375 25.8375 28.4625 25.95C26.025 26.0813 23.7938 26.1375 21.7313 26.1375L18.75 26.25C10.8937 26.25 6 25.95 4.06875 25.425C2.38125 24.9562 1.29375 23.8687 0.825 22.1812C0.58125 21.3 0.4125 20.1188 0.3 18.6188C0.16875 17.1188 0.1125 15.825 0.1125 14.7L0 13.125C0 9.01875 0.3 6 0.825 4.06875C1.29375 2.38125 2.38125 1.29375 4.06875 0.825C4.95 0.58125 6.5625 0.4125 9.0375 0.3C11.475 0.16875 13.7062 0.1125 15.7687 0.1125L18.75 0C26.6063 0 31.5 0.3 33.4312 0.825C35.1187 1.29375 36.2062 2.38125 36.675 4.06875Z" fill="currentColor"/>
</svg>
